<mxfile host="app.diagrams.net" agent="Mozilla/5.0 (Windows NT 10.0; Win64; x64) AppleWebKit/537.36 (KHTML, like Gecko) Chrome/130.0.0.0 Safari/537.36" version="24.8.6">
  <diagram id="C5RBs43oDa-KdzZeNtuy" name="Page-1">
    <mxGraphModel dx="1615" dy="815" grid="1" gridSize="10" guides="1" tooltips="1" connect="1" arrows="1" fold="1" page="1" pageScale="1" pageWidth="3300" pageHeight="4681" math="0" shadow="0">
      <root>
        <mxCell id="WIyWlLk6GJQsqaUBKTNV-0" />
        <mxCell id="WIyWlLk6GJQsqaUBKTNV-1" parent="WIyWlLk6GJQsqaUBKTNV-0" />
        <mxCell id="zAj_Ilh3aJi94rQSx1cW-36" style="edgeStyle=orthogonalEdgeStyle;rounded=0;orthogonalLoop=1;jettySize=auto;html=1;exitX=1;exitY=0.5;exitDx=0;exitDy=0;curved=1;dashed=1;dashPattern=12 12;" edge="1" parent="WIyWlLk6GJQsqaUBKTNV-1" source="zAj_Ilh3aJi94rQSx1cW-2" target="zAj_Ilh3aJi94rQSx1cW-8">
          <mxGeometry relative="1" as="geometry" />
        </mxCell>
        <mxCell id="zAj_Ilh3aJi94rQSx1cW-2" value="" style="strokeColor=#dddddd;shadow=1;strokeWidth=1;rounded=1;absoluteArcSize=1;arcSize=2;fontSize=19;" vertex="1" parent="WIyWlLk6GJQsqaUBKTNV-1">
          <mxGeometry x="530" y="130" width="150" height="50" as="geometry" />
        </mxCell>
        <mxCell id="zAj_Ilh3aJi94rQSx1cW-3" value="cupd-clip" style="sketch=0;dashed=0;connectable=0;html=1;fillColor=#757575;strokeColor=none;shape=mxgraph.gcp2.task_queues;part=1;labelPosition=right;verticalLabelPosition=middle;align=left;verticalAlign=middle;spacingLeft=5;fontSize=19;" vertex="1" parent="zAj_Ilh3aJi94rQSx1cW-2">
          <mxGeometry y="0.5" width="32" height="32" relative="1" as="geometry">
            <mxPoint x="5" y="-16" as="offset" />
          </mxGeometry>
        </mxCell>
        <mxCell id="zAj_Ilh3aJi94rQSx1cW-51" style="edgeStyle=orthogonalEdgeStyle;rounded=0;orthogonalLoop=1;jettySize=auto;html=1;exitX=1;exitY=0.5;exitDx=0;exitDy=0;entryX=0.5;entryY=0;entryDx=0;entryDy=0;curved=1;dashed=1;dashPattern=12 12;" edge="1" parent="WIyWlLk6GJQsqaUBKTNV-1" source="zAj_Ilh3aJi94rQSx1cW-4" target="zAj_Ilh3aJi94rQSx1cW-22">
          <mxGeometry relative="1" as="geometry" />
        </mxCell>
        <mxCell id="zAj_Ilh3aJi94rQSx1cW-4" value="" style="strokeColor=#dddddd;shadow=1;strokeWidth=1;rounded=1;absoluteArcSize=1;arcSize=2;fontSize=19;" vertex="1" parent="WIyWlLk6GJQsqaUBKTNV-1">
          <mxGeometry x="1290" y="130" width="270" height="50" as="geometry" />
        </mxCell>
        <mxCell id="zAj_Ilh3aJi94rQSx1cW-5" value="cupd-clip-fail-log-retry" style="sketch=0;dashed=0;connectable=0;html=1;fillColor=#757575;strokeColor=none;shape=mxgraph.gcp2.task_queues;part=1;labelPosition=right;verticalLabelPosition=middle;align=left;verticalAlign=middle;spacingLeft=5;fontSize=19;" vertex="1" parent="zAj_Ilh3aJi94rQSx1cW-4">
          <mxGeometry y="0.5" width="32" height="32" relative="1" as="geometry">
            <mxPoint x="5" y="-16" as="offset" />
          </mxGeometry>
        </mxCell>
        <mxCell id="zAj_Ilh3aJi94rQSx1cW-37" style="edgeStyle=orthogonalEdgeStyle;rounded=0;orthogonalLoop=1;jettySize=auto;html=1;exitX=0.5;exitY=1;exitDx=0;exitDy=0;entryX=0.5;entryY=0;entryDx=0;entryDy=0;" edge="1" parent="WIyWlLk6GJQsqaUBKTNV-1" source="zAj_Ilh3aJi94rQSx1cW-8" target="zAj_Ilh3aJi94rQSx1cW-9">
          <mxGeometry relative="1" as="geometry" />
        </mxCell>
        <mxCell id="zAj_Ilh3aJi94rQSx1cW-8" value="交易队列消费者订阅" style="rounded=1;whiteSpace=wrap;html=1;fontSize=19;" vertex="1" parent="WIyWlLk6GJQsqaUBKTNV-1">
          <mxGeometry x="750" y="230" width="200" height="60" as="geometry" />
        </mxCell>
        <mxCell id="zAj_Ilh3aJi94rQSx1cW-38" style="edgeStyle=orthogonalEdgeStyle;rounded=0;orthogonalLoop=1;jettySize=auto;html=1;exitX=0;exitY=0.5;exitDx=0;exitDy=0;entryX=1;entryY=0.5;entryDx=0;entryDy=0;" edge="1" parent="WIyWlLk6GJQsqaUBKTNV-1" source="zAj_Ilh3aJi94rQSx1cW-9" target="zAj_Ilh3aJi94rQSx1cW-12">
          <mxGeometry relative="1" as="geometry" />
        </mxCell>
        <mxCell id="zAj_Ilh3aJi94rQSx1cW-9" value="判断数据库标识&lt;div&gt;是否为可用&lt;/div&gt;" style="rhombus;whiteSpace=wrap;html=1;fontSize=19;" vertex="1" parent="WIyWlLk6GJQsqaUBKTNV-1">
          <mxGeometry x="747.5" y="330" width="205" height="140" as="geometry" />
        </mxCell>
        <mxCell id="zAj_Ilh3aJi94rQSx1cW-39" style="edgeStyle=orthogonalEdgeStyle;rounded=0;orthogonalLoop=1;jettySize=auto;html=1;exitX=0.5;exitY=1;exitDx=0;exitDy=0;entryX=0.5;entryY=0;entryDx=0;entryDy=0;" edge="1" parent="WIyWlLk6GJQsqaUBKTNV-1" source="zAj_Ilh3aJi94rQSx1cW-12" target="zAj_Ilh3aJi94rQSx1cW-13">
          <mxGeometry relative="1" as="geometry" />
        </mxCell>
        <mxCell id="zAj_Ilh3aJi94rQSx1cW-12" value="插入或更新数据库" style="rounded=1;whiteSpace=wrap;html=1;fontSize=19;" vertex="1" parent="WIyWlLk6GJQsqaUBKTNV-1">
          <mxGeometry x="430" y="370" width="200" height="60" as="geometry" />
        </mxCell>
        <mxCell id="zAj_Ilh3aJi94rQSx1cW-40" style="edgeStyle=orthogonalEdgeStyle;rounded=0;orthogonalLoop=1;jettySize=auto;html=1;exitX=0.5;exitY=1;exitDx=0;exitDy=0;entryX=0.5;entryY=0;entryDx=0;entryDy=0;" edge="1" parent="WIyWlLk6GJQsqaUBKTNV-1" source="zAj_Ilh3aJi94rQSx1cW-13" target="zAj_Ilh3aJi94rQSx1cW-18">
          <mxGeometry relative="1" as="geometry" />
        </mxCell>
        <mxCell id="zAj_Ilh3aJi94rQSx1cW-49" style="edgeStyle=orthogonalEdgeStyle;rounded=0;orthogonalLoop=1;jettySize=auto;html=1;exitX=0;exitY=0.5;exitDx=0;exitDy=0;entryX=0;entryY=0.5;entryDx=0;entryDy=0;" edge="1" parent="WIyWlLk6GJQsqaUBKTNV-1" source="zAj_Ilh3aJi94rQSx1cW-13" target="zAj_Ilh3aJi94rQSx1cW-21">
          <mxGeometry relative="1" as="geometry">
            <Array as="points">
              <mxPoint x="360" y="550" />
              <mxPoint x="360" y="1290" />
            </Array>
          </mxGeometry>
        </mxCell>
        <mxCell id="zAj_Ilh3aJi94rQSx1cW-13" value="操作成功" style="rhombus;whiteSpace=wrap;html=1;fontSize=19;" vertex="1" parent="WIyWlLk6GJQsqaUBKTNV-1">
          <mxGeometry x="430" y="510" width="200" height="80" as="geometry" />
        </mxCell>
        <mxCell id="zAj_Ilh3aJi94rQSx1cW-42" style="edgeStyle=orthogonalEdgeStyle;rounded=0;orthogonalLoop=1;jettySize=auto;html=1;exitX=0.5;exitY=0;exitDx=0;exitDy=0;entryX=0;entryY=0.5;entryDx=0;entryDy=0;" edge="1" parent="WIyWlLk6GJQsqaUBKTNV-1" source="zAj_Ilh3aJi94rQSx1cW-14" target="zAj_Ilh3aJi94rQSx1cW-15">
          <mxGeometry relative="1" as="geometry" />
        </mxCell>
        <mxCell id="zAj_Ilh3aJi94rQSx1cW-14" value="修改数据库标识为不可用" style="rounded=1;whiteSpace=wrap;html=1;fontSize=19;" vertex="1" parent="WIyWlLk6GJQsqaUBKTNV-1">
          <mxGeometry x="720" y="690" width="200" height="60" as="geometry" />
        </mxCell>
        <mxCell id="zAj_Ilh3aJi94rQSx1cW-43" style="edgeStyle=orthogonalEdgeStyle;rounded=0;orthogonalLoop=1;jettySize=auto;html=1;exitX=0.5;exitY=1;exitDx=0;exitDy=0;entryX=0.5;entryY=0;entryDx=0;entryDy=0;" edge="1" parent="WIyWlLk6GJQsqaUBKTNV-1" source="zAj_Ilh3aJi94rQSx1cW-15" target="zAj_Ilh3aJi94rQSx1cW-16">
          <mxGeometry relative="1" as="geometry" />
        </mxCell>
        <mxCell id="zAj_Ilh3aJi94rQSx1cW-15" value="处理失败日志" style="rounded=1;whiteSpace=wrap;html=1;fontSize=19;" vertex="1" parent="WIyWlLk6GJQsqaUBKTNV-1">
          <mxGeometry x="970" y="500" width="200" height="60" as="geometry" />
        </mxCell>
        <mxCell id="zAj_Ilh3aJi94rQSx1cW-44" style="edgeStyle=orthogonalEdgeStyle;rounded=0;orthogonalLoop=1;jettySize=auto;html=1;exitX=0.5;exitY=1;exitDx=0;exitDy=0;entryX=0.5;entryY=0;entryDx=0;entryDy=0;" edge="1" parent="WIyWlLk6GJQsqaUBKTNV-1" source="zAj_Ilh3aJi94rQSx1cW-16" target="zAj_Ilh3aJi94rQSx1cW-30">
          <mxGeometry relative="1" as="geometry" />
        </mxCell>
        <mxCell id="zAj_Ilh3aJi94rQSx1cW-16" value="从redis中获取当前已经重试次数" style="rounded=1;whiteSpace=wrap;html=1;fontSize=19;" vertex="1" parent="WIyWlLk6GJQsqaUBKTNV-1">
          <mxGeometry x="970" y="600" width="200" height="60" as="geometry" />
        </mxCell>
        <mxCell id="zAj_Ilh3aJi94rQSx1cW-17" value="查询成功" style="rhombus;whiteSpace=wrap;html=1;fontSize=19;" vertex="1" parent="WIyWlLk6GJQsqaUBKTNV-1">
          <mxGeometry x="1420" y="820" width="200" height="120" as="geometry" />
        </mxCell>
        <mxCell id="zAj_Ilh3aJi94rQSx1cW-41" style="edgeStyle=orthogonalEdgeStyle;rounded=0;orthogonalLoop=1;jettySize=auto;html=1;exitX=1;exitY=0.5;exitDx=0;exitDy=0;entryX=0;entryY=0.5;entryDx=0;entryDy=0;" edge="1" parent="WIyWlLk6GJQsqaUBKTNV-1" source="zAj_Ilh3aJi94rQSx1cW-18" target="zAj_Ilh3aJi94rQSx1cW-14">
          <mxGeometry relative="1" as="geometry" />
        </mxCell>
        <mxCell id="zAj_Ilh3aJi94rQSx1cW-18" value="判断异常类型是否&lt;div&gt;&lt;span style=&quot;background-color: initial;&quot;&gt;为数据库通信超时异常&lt;/span&gt;&lt;/div&gt;" style="rhombus;whiteSpace=wrap;html=1;fontSize=19;" vertex="1" parent="WIyWlLk6GJQsqaUBKTNV-1">
          <mxGeometry x="397.5" y="650" width="265" height="140" as="geometry" />
        </mxCell>
        <mxCell id="zAj_Ilh3aJi94rQSx1cW-48" style="edgeStyle=orthogonalEdgeStyle;rounded=0;orthogonalLoop=1;jettySize=auto;html=1;exitX=0.5;exitY=1;exitDx=0;exitDy=0;entryX=0.5;entryY=0;entryDx=0;entryDy=0;" edge="1" parent="WIyWlLk6GJQsqaUBKTNV-1" source="zAj_Ilh3aJi94rQSx1cW-19" target="zAj_Ilh3aJi94rQSx1cW-21">
          <mxGeometry relative="1" as="geometry">
            <Array as="points">
              <mxPoint x="820" y="1130" />
              <mxPoint x="990" y="1130" />
            </Array>
          </mxGeometry>
        </mxCell>
        <mxCell id="zAj_Ilh3aJi94rQSx1cW-19" value="记录到文件中~/clip/logs/fail-logs/yyyyMMDD" style="rounded=1;whiteSpace=wrap;html=1;fontSize=19;" vertex="1" parent="WIyWlLk6GJQsqaUBKTNV-1">
          <mxGeometry x="720" y="890" width="200" height="80" as="geometry" />
        </mxCell>
        <mxCell id="zAj_Ilh3aJi94rQSx1cW-47" style="edgeStyle=orthogonalEdgeStyle;rounded=0;orthogonalLoop=1;jettySize=auto;html=1;exitX=0.5;exitY=1;exitDx=0;exitDy=0;entryX=0.5;entryY=0;entryDx=0;entryDy=0;" edge="1" parent="WIyWlLk6GJQsqaUBKTNV-1" source="zAj_Ilh3aJi94rQSx1cW-20" target="zAj_Ilh3aJi94rQSx1cW-21">
          <mxGeometry relative="1" as="geometry" />
        </mxCell>
        <mxCell id="zAj_Ilh3aJi94rQSx1cW-50" style="edgeStyle=orthogonalEdgeStyle;rounded=0;orthogonalLoop=1;jettySize=auto;html=1;exitX=1;exitY=0.5;exitDx=0;exitDy=0;entryX=0;entryY=0.5;entryDx=0;entryDy=0;curved=1;dashed=1;dashPattern=12 12;" edge="1" parent="WIyWlLk6GJQsqaUBKTNV-1" source="zAj_Ilh3aJi94rQSx1cW-20" target="zAj_Ilh3aJi94rQSx1cW-4">
          <mxGeometry relative="1" as="geometry" />
        </mxCell>
        <mxCell id="zAj_Ilh3aJi94rQSx1cW-20" value="延迟推送失败日志队列" style="rounded=1;whiteSpace=wrap;html=1;fontSize=19;" vertex="1" parent="WIyWlLk6GJQsqaUBKTNV-1">
          <mxGeometry x="970" y="950" width="200" height="60" as="geometry" />
        </mxCell>
        <mxCell id="zAj_Ilh3aJi94rQSx1cW-21" value="结束" style="ellipse;whiteSpace=wrap;html=1;fontSize=19;" vertex="1" parent="WIyWlLk6GJQsqaUBKTNV-1">
          <mxGeometry x="890" y="1250" width="200" height="80" as="geometry" />
        </mxCell>
        <mxCell id="zAj_Ilh3aJi94rQSx1cW-52" style="edgeStyle=orthogonalEdgeStyle;rounded=0;orthogonalLoop=1;jettySize=auto;html=1;exitX=0.5;exitY=1;exitDx=0;exitDy=0;entryX=0.5;entryY=0;entryDx=0;entryDy=0;" edge="1" parent="WIyWlLk6GJQsqaUBKTNV-1" source="zAj_Ilh3aJi94rQSx1cW-22" target="zAj_Ilh3aJi94rQSx1cW-23">
          <mxGeometry relative="1" as="geometry" />
        </mxCell>
        <mxCell id="zAj_Ilh3aJi94rQSx1cW-22" value="交易队列消费者订阅" style="rounded=1;whiteSpace=wrap;html=1;fontSize=19;" vertex="1" parent="WIyWlLk6GJQsqaUBKTNV-1">
          <mxGeometry x="1570" y="290" width="200" height="60" as="geometry" />
        </mxCell>
        <mxCell id="zAj_Ilh3aJi94rQSx1cW-23" value="区分出插入和更新日志" style="rounded=1;whiteSpace=wrap;html=1;fontSize=19;" vertex="1" parent="WIyWlLk6GJQsqaUBKTNV-1">
          <mxGeometry x="1570" y="400" width="200" height="60" as="geometry" />
        </mxCell>
        <mxCell id="zAj_Ilh3aJi94rQSx1cW-25" value="处理插入流水" style="rounded=1;whiteSpace=wrap;html=1;fontSize=19;" vertex="1" parent="WIyWlLk6GJQsqaUBKTNV-1">
          <mxGeometry x="1420" y="550" width="200" height="60" as="geometry" />
        </mxCell>
        <mxCell id="zAj_Ilh3aJi94rQSx1cW-27" value="处理更新流水" style="rounded=1;whiteSpace=wrap;html=1;fontSize=19;" vertex="1" parent="WIyWlLk6GJQsqaUBKTNV-1">
          <mxGeometry x="1740" y="550" width="200" height="60" as="geometry" />
        </mxCell>
        <mxCell id="zAj_Ilh3aJi94rQSx1cW-28" value="查询数据库中是否已经存在" style="rounded=1;whiteSpace=wrap;html=1;fontSize=19;" vertex="1" parent="WIyWlLk6GJQsqaUBKTNV-1">
          <mxGeometry x="1420" y="680" width="200" height="60" as="geometry" />
        </mxCell>
        <mxCell id="zAj_Ilh3aJi94rQSx1cW-29" value="插入流水" style="rounded=1;whiteSpace=wrap;html=1;fontSize=19;" vertex="1" parent="WIyWlLk6GJQsqaUBKTNV-1">
          <mxGeometry x="1420" y="1170" width="200" height="60" as="geometry" />
        </mxCell>
        <mxCell id="zAj_Ilh3aJi94rQSx1cW-45" style="edgeStyle=orthogonalEdgeStyle;rounded=0;orthogonalLoop=1;jettySize=auto;html=1;exitX=0;exitY=0.5;exitDx=0;exitDy=0;entryX=0.5;entryY=0;entryDx=0;entryDy=0;" edge="1" parent="WIyWlLk6GJQsqaUBKTNV-1" source="zAj_Ilh3aJi94rQSx1cW-30" target="zAj_Ilh3aJi94rQSx1cW-19">
          <mxGeometry relative="1" as="geometry" />
        </mxCell>
        <mxCell id="zAj_Ilh3aJi94rQSx1cW-46" style="edgeStyle=orthogonalEdgeStyle;rounded=0;orthogonalLoop=1;jettySize=auto;html=1;exitX=0.5;exitY=1;exitDx=0;exitDy=0;entryX=0.5;entryY=0;entryDx=0;entryDy=0;" edge="1" parent="WIyWlLk6GJQsqaUBKTNV-1" source="zAj_Ilh3aJi94rQSx1cW-30" target="zAj_Ilh3aJi94rQSx1cW-20">
          <mxGeometry relative="1" as="geometry" />
        </mxCell>
        <mxCell id="zAj_Ilh3aJi94rQSx1cW-30" value="是否达到最大重试次数" style="rhombus;whiteSpace=wrap;html=1;fontSize=19;" vertex="1" parent="WIyWlLk6GJQsqaUBKTNV-1">
          <mxGeometry x="955" y="740" width="230" height="130" as="geometry" />
        </mxCell>
        <mxCell id="zAj_Ilh3aJi94rQSx1cW-31" value="更新成功" style="rhombus;whiteSpace=wrap;html=1;fontSize=19;" vertex="1" parent="WIyWlLk6GJQsqaUBKTNV-1">
          <mxGeometry x="1740" y="820" width="200" height="120" as="geometry" />
        </mxCell>
        <mxCell id="zAj_Ilh3aJi94rQSx1cW-32" value="数据库存在" style="rhombus;whiteSpace=wrap;html=1;fontSize=19;" vertex="1" parent="WIyWlLk6GJQsqaUBKTNV-1">
          <mxGeometry x="1420" y="1000" width="200" height="120" as="geometry" />
        </mxCell>
        <mxCell id="zAj_Ilh3aJi94rQSx1cW-33" value="更新流水" style="rounded=1;whiteSpace=wrap;html=1;fontSize=19;" vertex="1" parent="WIyWlLk6GJQsqaUBKTNV-1">
          <mxGeometry x="1740" y="680" width="200" height="60" as="geometry" />
        </mxCell>
        <mxCell id="zAj_Ilh3aJi94rQSx1cW-34" value="插入成功" style="rhombus;whiteSpace=wrap;html=1;fontSize=19;" vertex="1" parent="WIyWlLk6GJQsqaUBKTNV-1">
          <mxGeometry x="1420" y="1290" width="200" height="120" as="geometry" />
        </mxCell>
        <mxCell id="zAj_Ilh3aJi94rQSx1cW-53" value="修改数据库标识为不可用" style="rounded=1;whiteSpace=wrap;html=1;fontSize=19;" vertex="1" parent="WIyWlLk6GJQsqaUBKTNV-1">
          <mxGeometry x="1420" y="1450" width="200" height="60" as="geometry" />
        </mxCell>
      </root>
    </mxGraphModel>
  </diagram>
</mxfile>
